<svg width="183" height="25" viewBox="0 0 183 25" fill="none" xmlns="http://www.w3.org/2000/svg">
<path d="M18.4428 24.9996C18.2317 24.9996 18.0212 24.9272 17.8515 24.7833L17.8509 24.7839C16.7753 23.8767 15.4094 23.3769 14.0046 23.3769C13.2848 23.3769 12.5801 23.5051 11.91 23.7576C9.72285 24.582 7.42858 24.9999 5.09076 24.9999H0.915189C0.40958 24.9999 0 24.59 0 24.0847V6.93265C0 6.42704 0.40958 6.01746 0.915189 6.01746H4.13354C4.63915 6.01746 5.04872 6.42704 5.04872 6.93265C5.04872 7.43825 4.63915 7.84783 4.13354 7.84783H1.83038V23.1695H5.09076C7.20738 23.1695 9.28443 22.7912 11.2645 22.0451C12.1414 21.7146 13.0633 21.5468 14.0046 21.5468C15.5926 21.5468 17.1428 22.0353 18.4415 22.9342C19.7405 22.0353 21.2905 21.5468 22.8785 21.5468C23.8194 21.5468 24.7417 21.7143 25.6188 22.0454C27.5986 22.7912 29.6757 23.1698 31.7923 23.1698H35.0527V7.84814H32.7495C32.2442 7.84814 31.8343 7.43825 31.8343 6.93295C31.8343 6.42734 32.2442 6.01776 32.7495 6.01776H35.9679C36.4732 6.01776 36.8831 6.42734 36.8831 6.93295V24.085C36.8831 24.5903 36.4732 25.0002 35.9679 25.0002H31.7923C29.4545 25.0002 27.1602 24.5823 24.9733 23.7582C24.303 23.5054 23.5982 23.3772 22.8785 23.3772C21.4736 23.3772 20.1078 23.877 19.0324 24.7842C18.8615 24.9284 18.652 24.9996 18.4428 24.9996Z" fill="white"/>
<path d="M18.4418 20.6035C18.232 20.6035 18.0218 20.5314 17.8515 20.3876C16.2043 18.9968 13.9281 18.6041 11.9094 19.3635C9.7219 20.1863 7.42795 20.6035 5.09073 20.6035H4.13321C3.6276 20.6035 3.21802 20.1937 3.21802 19.6884V2.53632C3.21802 2.03071 3.6276 1.62113 4.13321 1.62113H5.09073C7.20674 1.62113 9.28409 1.24316 11.2648 0.498242C13.6695 -0.406208 16.3546 -0.0601368 18.4418 1.3849C20.529 -0.0604435 23.2147 -0.406515 25.6188 0.498242C27.5998 1.24346 29.6769 1.62113 31.7929 1.62113H32.7504C33.2557 1.62113 33.6656 2.03071 33.6656 2.53632V19.6884C33.6656 20.194 33.2557 20.6035 32.7504 20.6035H31.7929C29.456 20.6035 27.162 20.1863 24.9742 19.3635C22.9567 18.6047 20.6796 18.9965 19.0321 20.3876C18.8618 20.5314 18.6517 20.6035 18.4418 20.6035ZM22.8794 17.152C23.8016 17.152 24.7294 17.3156 25.6188 17.6503C27.5998 18.3955 29.6769 18.7732 31.7929 18.7732H31.8352V3.45182H31.7929C29.456 3.45182 27.162 3.03457 24.9742 2.21173C22.9561 1.45208 20.6793 1.84479 19.0321 3.23614C18.6915 3.52392 18.1921 3.52392 17.8512 3.23614C16.2037 1.8451 13.9272 1.4527 11.9091 2.21173C9.72159 3.03457 7.42764 3.45182 5.09043 3.45182H5.04809V18.7732H5.09043C7.20643 18.7732 9.28379 18.3955 11.2645 17.6503C13.6683 16.7455 16.354 17.0919 18.4415 18.5369C19.7568 17.6263 21.3095 17.152 22.8794 17.152Z" fill="white"/>
<path d="M4.90865 5.91492H11.0447V7.75573H4.90865V5.91492Z" fill="white"/>
<path d="M11.965 5.30176C12.8122 5.30176 13.499 5.98861 13.499 6.83576C13.499 7.68291 12.8122 8.36977 11.965 8.36977C11.1179 8.36977 10.431 7.68291 10.431 6.83576C10.431 5.98861 11.1179 5.30176 11.965 5.30176Z" fill="white"/>
<path d="M4.90865 10.5173H11.0447V12.3581H4.90865V10.5173Z" fill="white"/>
<path d="M11.965 9.90344C12.8122 9.90344 13.499 10.5903 13.499 11.4374C13.499 12.2846 12.8122 12.9715 11.965 12.9715C11.1179 12.9715 10.431 12.2846 10.431 11.4374C10.431 10.5903 11.1179 9.90344 11.965 9.90344Z" fill="white"/>
<path d="M32.2139 5.91492H26.0779V7.75573H32.2139V5.91492Z" fill="white"/>
<path d="M25.1575 5.30176C24.3104 5.30176 23.6235 5.98861 23.6235 6.83576C23.6235 7.68291 24.3104 8.36977 25.1575 8.36977C26.0047 8.36977 26.6915 7.68291 26.6915 6.83576C26.6915 5.98861 26.0047 5.30176 25.1575 5.30176Z" fill="white"/>
<path d="M32.2139 10.5173H26.0779V12.3581H32.2139V10.5173Z" fill="white"/>
<path d="M25.1575 9.90344C24.3104 9.90344 23.6235 10.5903 23.6235 11.4374C23.6235 12.2846 24.3104 12.9715 25.1575 12.9715C26.0047 12.9715 26.6915 12.2846 26.6915 11.4374C26.6915 10.5903 26.0047 9.90344 25.1575 9.90344Z" fill="white"/>
<path d="M46.5904 20V5.60107H53.1316C54.6949 5.60107 56.0731 5.90276 57.2661 6.50614C58.4592 7.09582 59.3917 7.92547 60.0636 8.9951C60.7356 10.0647 61.0716 11.3332 61.0716 12.8005C61.0716 14.2541 60.7356 15.5226 60.0636 16.606C59.3917 17.6756 58.4592 18.5121 57.2661 19.1155C56.0731 19.7052 54.6949 20 53.1316 20H46.5904ZM49.9227 17.2642H52.967C53.927 17.2642 54.7566 17.0859 55.456 16.7294C56.1691 16.3591 56.7176 15.838 57.1016 15.1661C57.4993 14.4941 57.6981 13.7056 57.6981 12.8005C57.6981 11.8817 57.4993 11.0932 57.1016 10.435C56.7176 9.76305 56.1691 9.2488 55.456 8.89225C54.7566 8.52199 53.927 8.33687 52.967 8.33687H49.9227V17.2642ZM63.3584 20V8.93339H66.5673V20H63.3584ZM64.9628 7.39065C64.3731 7.39065 63.8932 7.21923 63.5229 6.8764C63.1527 6.53357 62.9675 6.10846 62.9675 5.60107C62.9675 5.09368 63.1527 4.66857 63.5229 4.32574C63.8932 3.9829 64.3731 3.81149 64.9628 3.81149C65.5525 3.81149 66.0325 3.97605 66.4027 4.30517C66.773 4.62057 66.9581 5.03197 66.9581 5.53936C66.9581 6.07418 66.773 6.51986 66.4027 6.8764C66.0462 7.21923 65.5662 7.39065 64.9628 7.39065ZM74.7496 24.1551C73.7074 24.1551 72.6995 24.0248 71.7258 23.7643C70.7659 23.5175 69.9637 23.1403 69.3191 22.6329L70.5945 20.3291C71.0607 20.7131 71.6504 21.0148 72.3635 21.2342C73.0903 21.4673 73.8034 21.5839 74.5028 21.5839C75.641 21.5839 76.4637 21.3302 76.9711 20.8228C77.4922 20.3154 77.7528 19.5612 77.7528 18.5601V16.8939L77.9585 14.117L77.9174 11.3195V8.93339H80.9617V18.1487C80.9617 20.2057 80.4269 21.721 79.3572 22.6947C78.2876 23.6683 76.7517 24.1551 74.7496 24.1551ZM74.2559 19.4652C73.2274 19.4652 72.2949 19.2458 71.4584 18.8069C70.6356 18.3544 69.9705 17.7305 69.4631 16.9351C68.9694 16.126 68.7226 15.1866 68.7226 14.117C68.7226 13.0337 68.9694 12.0943 69.4631 11.2989C69.9705 10.4898 70.6356 9.8659 71.4584 9.42707C72.2949 8.98825 73.2274 8.76883 74.2559 8.76883C75.1884 8.76883 76.0112 8.96082 76.7243 9.34479C77.4374 9.71505 77.9928 10.2979 78.3905 11.0932C78.7881 11.8749 78.987 12.8828 78.987 14.117C78.987 15.3375 78.7881 16.3454 78.3905 17.1408C77.9928 17.9224 77.4374 18.5053 76.7243 18.8892C76.0112 19.2732 75.1884 19.4652 74.2559 19.4652ZM74.8936 16.8322C75.4558 16.8322 75.9564 16.7225 76.3952 16.5031C76.834 16.27 77.1768 15.9477 77.4237 15.5363C77.6705 15.1249 77.7939 14.6518 77.7939 14.117C77.7939 13.5685 77.6705 13.0954 77.4237 12.6977C77.1768 12.2863 76.834 11.9709 76.3952 11.7515C75.9564 11.5183 75.4558 11.4018 74.8936 11.4018C74.3313 11.4018 73.8308 11.5183 73.392 11.7515C72.9532 11.9709 72.6035 12.2863 72.3429 12.6977C72.0961 13.0954 71.9727 13.5685 71.9727 14.117C71.9727 14.6518 72.0961 15.1249 72.3429 15.5363C72.6035 15.9477 72.9532 16.27 73.392 16.5031C73.8308 16.7225 74.3313 16.8322 74.8936 16.8322ZM83.9484 20V8.93339H87.1573V20H83.9484ZM85.5528 7.39065C84.9631 7.39065 84.4832 7.21923 84.1129 6.8764C83.7427 6.53357 83.5575 6.10846 83.5575 5.60107C83.5575 5.09368 83.7427 4.66857 84.1129 4.32574C84.4832 3.9829 84.9631 3.81149 85.5528 3.81149C86.1425 3.81149 86.6224 3.97605 86.9927 4.30517C87.363 4.62057 87.5481 5.03197 87.5481 5.53936C87.5481 6.07418 87.363 6.51986 86.9927 6.8764C86.6362 7.21923 86.1562 7.39065 85.5528 7.39065ZM94.2947 20L100.713 5.60107H104.004L110.442 20H106.945L101.679 7.2878H102.996L97.7093 20H94.2947ZM97.5036 16.9145L98.3881 14.3844H105.793L106.698 16.9145H97.5036ZM114.363 17.7373L114.445 13.829L119.609 8.93339H123.435L118.477 13.973L116.811 15.3306L114.363 17.7373ZM111.71 20V4.73713H114.919V20H111.71ZM119.958 20L116.214 15.3512L118.23 12.8622L123.846 20H119.958ZM128.651 20.1646C127.704 20.1646 126.792 20.0549 125.915 19.8354C125.051 19.6023 124.365 19.3143 123.858 18.9715L124.927 16.6677C125.435 16.9831 126.031 17.2436 126.717 17.4493C127.416 17.6413 128.102 17.7373 128.774 17.7373C129.515 17.7373 130.036 17.6482 130.337 17.4699C130.653 17.2916 130.81 17.0448 130.81 16.7294C130.81 16.4688 130.687 16.2768 130.44 16.1534C130.207 16.0163 129.892 15.9134 129.494 15.8449C129.096 15.7763 128.657 15.7077 128.177 15.6392C127.711 15.5706 127.238 15.4815 126.758 15.3718C126.278 15.2484 125.839 15.0701 125.442 14.837C125.044 14.6038 124.722 14.2884 124.475 13.8907C124.242 13.4931 124.125 12.9788 124.125 12.348C124.125 11.6486 124.324 11.0315 124.722 10.4967C125.133 9.96189 125.723 9.54363 126.491 9.24194C127.259 8.92654 128.177 8.76883 129.247 8.76883C130.001 8.76883 130.769 8.85111 131.551 9.01567C132.333 9.18023 132.984 9.42021 133.505 9.73562L132.435 12.0189C131.901 11.7035 131.359 11.4909 130.81 11.3812C130.276 11.2578 129.755 11.1961 129.247 11.1961C128.534 11.1961 128.013 11.2921 127.684 11.4841C127.355 11.676 127.19 11.9229 127.19 12.2246C127.19 12.4988 127.307 12.7045 127.54 12.8417C127.787 12.9788 128.109 13.0885 128.507 13.1708C128.904 13.2531 129.336 13.3285 129.803 13.3971C130.282 13.4519 130.762 13.5411 131.242 13.6645C131.722 13.7879 132.154 13.9662 132.538 14.1993C132.936 14.4187 133.258 14.7272 133.505 15.1249C133.752 15.5089 133.875 16.0163 133.875 16.6471C133.875 17.3328 133.67 17.943 133.258 18.4778C132.847 18.9989 132.25 19.4103 131.469 19.712C130.701 20.0137 129.761 20.1646 128.651 20.1646ZM142.582 8.76883C143.459 8.76883 144.241 8.94711 144.927 9.30365C145.626 9.64648 146.174 10.1813 146.572 10.9081C146.97 11.6212 147.169 12.54 147.169 13.6645V20H143.96V14.1581C143.96 13.2668 143.761 12.6085 143.363 12.1834C142.979 11.7583 142.431 11.5458 141.718 11.5458C141.21 11.5458 140.751 11.6555 140.339 11.8749C139.942 12.0806 139.626 12.4028 139.393 12.8417C139.174 13.2805 139.064 13.8427 139.064 14.5284V20H135.855V4.73713H139.064V11.9983L138.344 11.0727C138.742 10.3321 139.311 9.76305 140.051 9.36536C140.792 8.96768 141.635 8.76883 142.582 8.76883ZM156.865 20V17.8402L156.66 17.3671V13.4999C156.66 12.8142 156.447 12.2794 156.022 11.8955C155.611 11.5115 154.973 11.3195 154.109 11.3195C153.519 11.3195 152.937 11.4155 152.361 11.6075C151.798 11.7858 151.318 12.0326 150.921 12.348L149.769 10.1059C150.372 9.68077 151.099 9.35165 151.949 9.11852C152.799 8.8854 153.663 8.76883 154.541 8.76883C156.228 8.76883 157.537 9.16652 158.47 9.96189C159.402 10.7573 159.869 11.9983 159.869 13.685V20H156.865ZM153.492 20.1646C152.628 20.1646 151.888 20.0206 151.27 19.7326C150.653 19.4309 150.18 19.0264 149.851 18.519C149.522 18.0116 149.357 17.4425 149.357 16.8117C149.357 16.1534 149.515 15.5775 149.831 15.0838C150.16 14.5901 150.674 14.2061 151.373 13.9319C152.073 13.6439 152.985 13.4999 154.109 13.4999H157.051V15.3718H154.459C153.705 15.3718 153.183 15.4952 152.895 15.742C152.621 15.9889 152.484 16.2974 152.484 16.6677C152.484 17.0791 152.642 17.4082 152.957 17.655C153.286 17.8882 153.732 18.0047 154.294 18.0047C154.829 18.0047 155.309 17.8813 155.734 17.6345C156.159 17.3739 156.468 16.9968 156.66 16.5031L157.153 17.9841C156.92 18.6972 156.495 19.2389 155.878 19.6092C155.261 19.9794 154.466 20.1646 153.492 20.1646ZM162.773 20V8.93339H165.838V12.06L165.406 11.1549C165.735 10.3733 166.263 9.78362 166.99 9.38593C167.716 8.97453 168.601 8.76883 169.643 8.76883V11.7309C169.506 11.7172 169.383 11.7103 169.273 11.7103C169.163 11.6966 169.047 11.6898 168.923 11.6898C168.046 11.6898 167.333 11.9435 166.784 12.4508C166.249 12.9445 165.982 13.7193 165.982 14.7752V20H162.773ZM177.616 20V17.8402L177.41 17.3671V13.4999C177.41 12.8142 177.198 12.2794 176.773 11.8955C176.361 11.5115 175.724 11.3195 174.86 11.3195C174.27 11.3195 173.687 11.4155 173.111 11.6075C172.549 11.7858 172.069 12.0326 171.671 12.348L170.52 10.1059C171.123 9.68077 171.85 9.35165 172.7 9.11852C173.55 8.8854 174.414 8.76883 175.292 8.76883C176.978 8.76883 178.288 9.16652 179.221 9.96189C180.153 10.7573 180.619 11.9983 180.619 13.685V20H177.616ZM174.243 20.1646C173.379 20.1646 172.638 20.0206 172.021 19.7326C171.404 19.4309 170.931 19.0264 170.602 18.519C170.273 18.0116 170.108 17.4425 170.108 16.8117C170.108 16.1534 170.266 15.5775 170.581 15.0838C170.91 14.5901 171.425 14.2061 172.124 13.9319C172.823 13.6439 173.735 13.4999 174.86 13.4999H177.801V15.3718H175.209C174.455 15.3718 173.934 15.4952 173.646 15.742C173.372 15.9889 173.235 16.2974 173.235 16.6677C173.235 17.0791 173.392 17.4082 173.708 17.655C174.037 17.8882 174.483 18.0047 175.045 18.0047C175.58 18.0047 176.06 17.8813 176.485 17.6345C176.91 17.3739 177.218 16.9968 177.41 16.5031L177.904 17.9841C177.671 18.6972 177.246 19.2389 176.629 19.6092C176.012 19.9794 175.216 20.1646 174.243 20.1646Z" fill="white"/>
</svg>
