<svg width="21" height="20" viewBox="0 0 21 20" fill="none" xmlns="http://www.w3.org/2000/svg">
<g clip-path="url(#clip0_3745_5560)">
<path d="M17.207 3.09387C15.3945 1.28137 12.9258 0.281372 10.3945 0.281372C5.08203 0.281372 0.738281 4.59387 0.738281 9.90637C0.738281 11.6251 1.17578 13.2501 2.01953 14.7501L0.644531 19.7189L5.80078 18.4064C7.20703 19.1564 8.80078 19.5939 10.4258 19.5939C15.707 19.5626 20.0195 15.2501 20.0195 9.90637C20.0195 7.34387 19.0195 4.93762 17.207 3.09387ZM10.3633 17.9376C8.95703 17.9376 7.48828 17.5314 6.26953 16.7814L5.95703 16.5939L2.92578 17.3751L3.76953 14.4376L3.58203 14.1251C2.80078 12.8439 2.36328 11.3439 2.36328 9.84388C2.36328 5.43763 5.92578 1.87512 10.3633 1.87512C12.4883 1.87512 14.4883 2.71887 15.9883 4.21887C17.4883 5.71887 18.332 7.75012 18.332 9.90637C18.3945 14.3751 14.7695 17.9376 10.3633 17.9376ZM14.7695 11.9376C14.5195 11.8126 13.3633 11.2189 13.082 11.1876C12.8633 11.0939 12.6758 11.0626 12.5508 11.3126C12.4258 11.5626 11.9258 12.0626 11.8008 12.2501C11.6758 12.3751 11.5508 12.4376 11.2695 12.2814C11.0195 12.1564 10.2695 11.9376 9.33203 11.0626C8.61328 10.4376 8.11328 9.65638 8.01953 9.37513C7.89453 9.12513 7.98828 9.03138 8.14453 8.87513C8.26953 8.75013 8.39453 8.62513 8.48828 8.43763C8.61328 8.31263 8.61328 8.18762 8.73828 8.03137C8.86328 7.90637 8.76953 7.71887 8.70703 7.59387C8.61328 7.46887 8.17578 6.28138 7.95703 5.78138C7.76953 5.28138 7.55078 5.37512 7.42578 5.37512C7.30078 5.37512 7.11328 5.37512 6.98828 5.37512C6.86328 5.37512 6.55078 5.40637 6.36328 5.68762C6.14453 5.93762 5.51953 6.53137 5.51953 7.71887C5.51953 8.90637 6.36328 10.0001 6.51953 10.2189C6.64453 10.3439 8.23828 12.8126 10.6133 13.8751C11.1758 14.1251 11.6133 14.2814 11.9883 14.4064C12.5508 14.5939 13.082 14.5314 13.4883 14.5001C13.957 14.4689 14.8945 13.9376 15.1133 13.3439C15.3008 12.8126 15.3008 12.2814 15.2383 12.1876C15.1758 12.1251 14.9883 12.0314 14.7695 11.9376Z" fill="#10B981"/>
</g>
<defs>
<clipPath id="clip0_3745_5560">
<rect width="20" height="20" fill="white" transform="translate(0.332031)"/>
</clipPath>
</defs>
</svg>
